<?xml version="1.0" encoding="utf-8"?>
<!-- Svg Vector Icons : http://www.onlinewebfonts.com/icon -->
<!DOCTYPE svg PUBLIC "-//W3C//DTD SVG 1.1//EN" "http://www.w3.org/Graphics/SVG/1.1/DTD/svg11.dtd">
<svg version="1.1" xmlns="http://www.w3.org/2000/svg" xmlns:xlink="http://www.w3.org/1999/xlink" x="0px" y="0px" viewBox="0 0 256 256" enable-background="new 0 0 256 256" xml:space="preserve">
<metadata> Svg Vector Icons : http://www.onlinewebfonts.com/icon </metadata>
<g><g><g><path fill="#000000" d="M120.8,87.2c-4.6,0.9-7.6,1.9-11.9,4.1c-12.1,6.3-19.9,17.6-22.2,32.3l-0.3,1.8h-20h-20l-0.1-7.3l-0.1-7.2l-2.6-0.1l-2.7-0.1v7.6v7.6l-1.8,0.3c-2.4,0.4-4.9,2.6-5.6,5c-1.2,3.9,1.1,12.5,4.1,16.1c2,2.4,3.7,3.2,6.2,3.2c4.9,0,8.8-5.4,10-13.9c0.3-1.9,0.4-3.9,0.2-4.5l-0.2-1H70h16.4l0.2,1.7c2.1,14.7,10.4,26.4,23,32.7c6.6,3.2,10.3,4.1,18.3,4.1c8,0,11.8-0.8,18.3-4.1c12.7-6.2,20.7-17.6,23-32.7l0.3-1.7H186h16.4l-0.2,1c-0.2,0.6-0.1,2.6,0.2,4.5c1.2,8.4,5.1,13.9,10,13.9c2.5,0,4.2-0.9,6.2-3.2c3-3.6,5.3-12.2,4.1-16.1c-0.7-2.4-3.2-4.6-5.6-5l-1.8-0.3v-8v-8l-2.6,0.1l-2.7,0.1l-0.1,7.7l-0.1,7.8h-20.1h-20l-0.3-1.8c-2.7-17.7-13.7-30.6-30-35.4C134.1,86.7,125.8,86.2,120.8,87.2z M136.6,93c2,0.5,5.6,1.9,8,3.1c3.7,1.8,5.1,2.9,8.8,6.6c3.8,3.7,4.7,5,6.6,8.8c3,5.9,4,10.4,4,16.6c0,9.7-3.3,18-10.1,25.1c-13.4,14-36.1,14.7-50.1,1.6c-7.9-7.4-11.8-16.2-11.8-26.7c0-6.2,1.1-10.8,4-16.6c1.8-3.7,2.9-5.1,6.6-8.8c3.7-3.7,5.1-4.8,8.8-6.6c2.4-1.2,6-2.6,7.8-3.1C124,91.8,131.7,91.8,136.6,93z"/><path fill="#000000" d="M126.8,96c-0.2,0.4-0.1,1,0.2,1.2c0.7,0.7,2.2,0.2,2.2-0.8C129.2,95.3,127.2,94.9,126.8,96z"/><path fill="#000000" d="M139.9,113.2c-9.5,9.5-9.6,9.6-11.4,9.4c-5.9-0.4-8.3,7.3-3.2,10.3c3.8,2.2,8.8-1,8.2-5.4c-0.2-1.6,0-1.9,3.1-5l3.3-3.3l1,2c1.7,3.4,2.1,6.9,1.2,10.2c-0.9,3.5-2,5.4-4.7,7.7c-3.8,3.3-9.3,4.3-14.5,2.6c-1.8-0.6-3.2-1.5-5.1-3.4c-3.3-3.3-4.3-6-4.3-11.6c0-3.3-0.1-3.9-0.8-4.1c-1.3-0.2-1.8,2-1.7,6.4c0.1,2.7,0.5,4.6,1.2,6.1c1.3,3,5.2,7,8.4,8.5c2.3,1.2,3.1,1.3,7.4,1.3c4.3,0,5.1-0.1,7.4-1.3c3.1-1.5,7-5.4,8.4-8.5c0.8-1.8,1-3,1-7.1c0-4.6-0.1-5-1.5-7.8l-1.5-3l2.8-2.7l2.7-2.8l1.7,2.5c2.6,3.9,3.6,7.3,3.9,12.7c0.1,3.9,0,5.3-0.8,8c-1,3.1-1,3.3-0.2,3.9c1.2,0.9,1.3,0.8,2.1-1.1c3-7.6,1.9-18-2.8-25l-2-3l1.6-1.8c0.9-1,1.6-2.1,1.6-2.4c0-0.8-1.5-2.2-2.3-2.2C149.8,103.6,145.2,107.9,139.9,113.2z M129.9,126.1c1.8,1.6,0.5,4.8-1.8,4.8c-2.5,0-3.7-2.9-2.1-4.7C126.9,125.1,128.8,125.1,129.9,126.1z"/><path fill="#000000" d="M127.1,106.2c-0.8,0.9-0.2,2.1,0.9,2.1c0.5,0,1.1-0.3,1.2-0.7c0.3-0.7-0.5-2.1-1.2-2.1C127.8,105.5,127.4,105.8,127.1,106.2z"/><path fill="#000000" d="M127.1,116.8c-0.8,0.9-0.2,2.1,0.9,2.1c0.5,0,1.1-0.3,1.2-0.7c0.3-0.7-0.5-2.1-1.2-2.1C127.8,116.1,127.4,116.4,127.1,116.8z"/><path fill="#000000" d="M101.1,121c-0.3,0.8-0.6,3.6-0.6,7.1c0,6.5,0.8,9.6,3.7,14.4c7.4,12.1,23.2,16.7,36,10.4c1.6-0.8,2.9-1.6,2.9-1.8s-0.4-0.6-0.8-1.1c-0.7-0.7-1-0.6-3.1,0.4c-3.5,1.8-6.9,2.5-11.3,2.5c-7.3,0-12.3-2.1-17.6-7.3c-5.8-5.8-7.6-10.7-7.3-20c0.2-5,0.1-5.6-0.6-5.8C102,119.8,101.5,120.2,101.1,121z"/><path fill="#000000" d="M95.4,127.4c-0.4,1.1,0.2,2.2,1.1,2c1.1-0.2,1.1-2.4,0-2.6C96.1,126.7,95.6,127,95.4,127.4z"/><path fill="#000000" d="M105.8,127.4c-0.5,0.6-0.5,0.9,0.1,1.5c1,1,2.3,0.4,2.1-0.9C107.9,126.7,106.7,126.4,105.8,127.4z"/><path fill="#000000" d="M116.5,127.4c-0.5,0.6-0.5,0.9,0.1,1.5c1,1,2.3,0.4,2.1-0.9C118.5,126.7,117.3,126.4,116.5,127.4z"/><path fill="#000000" d="M137.4,127.4c-0.4,1,0.1,2.1,0.9,2.1c0.4,0,0.9-0.3,1.2-0.7c0.5-0.6,0.5-0.8,0-1.4c-0.3-0.4-0.9-0.7-1.2-0.7C138,126.7,137.6,127,137.4,127.4z"/><path fill="#000000" d="M148,127.4c-0.4,1,0.1,2.1,0.9,2.1c0.4,0,0.9-0.3,1.2-0.7c0.5-0.6,0.5-0.8,0-1.4c-0.3-0.4-0.9-0.7-1.2-0.7C148.6,126.7,148.2,127,148,127.4z"/><path fill="#000000" d="M158.6,127.4c-0.4,1.1,0.2,2.2,1.1,2c0.6-0.1,0.8-0.6,0.8-1.3C160.5,126.8,159.1,126.2,158.6,127.4z"/><path fill="#000000" d="M126.8,138.1c-0.1,0.4,0.1,1.1,0.5,1.5c0.7,0.7,0.8,0.7,1.5,0c1-1,0.5-2.2-0.7-2.2C127.5,137.3,126.9,137.7,126.8,138.1z"/><path fill="#000000" d="M143.9,141.2c-1.2,1.2-1.6,1.9-1.6,3.2c0,2.3,1.1,4.2,2.8,5.1c4.7,2.4,9.6-2.4,7.2-7.2c-1-1.9-2.4-2.8-4.8-2.8C145.8,139.6,145.2,139.9,143.9,141.2z"/><path fill="#000000" d="M126.8,148.7c-0.1,0.4,0.1,1.1,0.5,1.5c0.7,0.7,0.8,0.7,1.5,0c1-1,0.5-2.2-0.7-2.2C127.5,147.9,126.9,148.3,126.8,148.7z"/><path fill="#000000" d="M126.8,159.2c-0.2,0.4-0.1,1,0.2,1.2c0.7,0.7,2.2,0.2,2.2-0.8C129.2,158.5,127.2,158.1,126.8,159.2z"/><path fill="#000000" d="M30.9,93.1c-8.1,1.1-21.3,4.6-20.9,5.6c0.5,1.4,13.7,4.8,22.6,5.8c6.5,0.7,16.9,0.6,23.5-0.2c5.9-0.7,16.3-3.2,19.5-4.5c1.6-0.6,1.8-0.8,1.2-1.4c-1.4-1.3-12.2-4.1-20.2-5.1C50.8,92.5,36.3,92.4,30.9,93.1z"/><path fill="#000000" d="M199.1,93.3c-8,1.2-18.6,3.9-19.8,5.1c-0.6,0.6-0.4,0.8,1.2,1.4c3.2,1.3,13.6,3.8,19.5,4.5c6.6,0.8,17,1,23.5,0.2c8.9-1,22.1-4.4,22.6-5.8c0.4-1.1-12.9-4.6-21.6-5.7C219.2,92.4,204,92.5,199.1,93.3z"/></g></g></g>
</svg>