<?xml version="1.0" encoding="utf-8"?>
<!-- Svg Vector Icons : http://www.onlinewebfonts.com/icon -->
<!DOCTYPE svg PUBLIC "-//W3C//DTD SVG 1.1//EN" "http://www.w3.org/Graphics/SVG/1.1/DTD/svg11.dtd">
<svg version="1.1" xmlns="http://www.w3.org/2000/svg" xmlns:xlink="http://www.w3.org/1999/xlink" x="0px" y="0px" viewBox="0 0 256 256" enable-background="new 0 0 256 256" xml:space="preserve">
<metadata> Svg Vector Icons : http://www.onlinewebfonts.com/icon </metadata>
<g><g><g><path fill="#000000" d="M34.1,94.4C25,95.3,10,99,10,100.3c0,1.5,14.1,5.1,24,6c13.9,1.4,30.5-0.6,42-5c1.9-0.8,0.9-1.7-3.6-3C60.8,94.8,45.9,93.3,34.1,94.4z"/><path fill="#000000" d="M203.7,94.4c-10.1,0.9-25.3,4.7-24.8,6.1c0.2,0.6,3.8,1.8,9.7,3.4c13.9,3.5,29.3,3.8,44,0.9c6.8-1.4,13.4-3.6,13.4-4.4c0-0.8-6.6-2.9-13.9-4.3C222.8,94.1,213,93.6,203.7,94.4z"/><path fill="#000000" d="M123.4,98.2c-1,0.5-1.2,1-1.4,3.3c-0.1,1.8-0.5,2.9-0.9,3.1c-1.5,0.8-6.1,2.7-6.5,2.7c-0.2,0-1.2-0.7-2.2-1.6c-1-0.9-2.2-1.6-2.7-1.6c-2.1,0-7.5,5.4-7.5,7.6c0,0.4,0.7,1.5,1.6,2.5c0.9,1,1.6,2,1.6,2.3c0,0.4-1.9,5-2.7,6.6c-0.2,0.5-1.3,0.8-3,0.9c-2.6,0.2-3,0.5-3.6,2.4c-0.2,0.8-1.8,0.8-25,0.8H46.3v-7.4v-7.4h-2.8h-2.8v7.4v7.4l-2.1,0.5c-2.7,0.7-4.6,2.5-5.4,5c-1.4,4.7,1.8,14.7,5.7,17.7c6.5,5.2,14-1.9,14.6-13.9l0.2-4.2l21.1,0.1l21.1,0.1l0.4,1.5c0.4,1.6,1,1.9,4.5,2.1c2,0.1,2,0.2,2.9,2.7c0.5,1.4,1.1,2.7,1.3,3c0.8,0.9,0.4,2.3-1.2,4c-1.4,1.4-1.6,1.9-1.4,3c0.6,2.3,5.8,7.2,7.6,7.2c0.3,0,1.3-0.7,2.3-1.6c1-0.9,2-1.6,2.4-1.6c1,0,6.7,2.4,7,3c0.2,0.3,0.4,1.5,0.4,2.6c0,3.2,0.9,3.8,6,3.8c5.2,0,5.9-0.5,6.1-4.2l0.1-2.5l3.2-1.3c1.8-0.7,3.5-1.3,3.9-1.3c0.3,0,1.4,0.7,2.4,1.6c1,0.9,2.1,1.6,2.4,1.6c1.8,0,7.7-5.8,7.7-7.6c0-0.6-0.7-1.7-1.7-2.6c-1.9-1.8-1.9-2.3,0-6.7l1.2-2.8l2.4-0.1c2.6-0.1,3.9-1,4.2-2.6l0.1-1l21.2-0.1l21.2-0.1l-0.2,1.2c-0.4,1.8,0.5,7.7,1.6,10.5c3.4,9,11.1,10.8,15.7,3.5c1.6-2.6,3-7,3.4-10.9c0.5-5.1-1.5-8.1-6.4-9.2l-1.3-0.3v-7.9v-7.9h-2.8h-2.8v7.9v7.9H185c-23.1,0-24.8,0-25-0.8c-0.6-1.9-1-2.2-3.6-2.4c-1.4-0.1-2.8-0.5-3-0.7c-0.4-0.5-2.8-6.3-2.8-6.9c0-0.2,0.7-1.2,1.6-2.1c0.9-1,1.6-2.2,1.6-2.6c0-2-5.4-7.5-7.5-7.5c-0.5,0-1.7,0.7-2.7,1.6c-1,0.9-2,1.6-2.2,1.6c-0.4,0-5-1.9-6.5-2.7c-0.5-0.2-0.8-1.3-0.9-3.1c-0.3-3.4-1.1-3.9-6-3.9C126.1,97.6,124,97.9,123.4,98.2z M132.7,113.6c14.6,4.3,16.6,23.8,3.1,31.2c-2.8,1.5-3.1,1.6-7.8,1.6c-4.7,0-5,0-7.8-1.6c-9.6-5.2-12-16.7-5.5-25.6c1.5-2.1,5.1-4.5,8-5.5C126.2,112.7,129.4,112.6,132.7,113.6z"/></g></g></g>
</svg>