<?xml version="1.0" encoding="UTF-8"?>
<svg id="uuid-4f0e90e6-c0da-4b1d-9eb2-b2e403dd7287" data-name="Layer 1" xmlns="http://www.w3.org/2000/svg" viewBox="0 0 383.29 383.92">
  <defs>
    <style>
      .uuid-e18d256c-7726-4ef6-9436-cfe9dfab25b7 {
        fill: none;
      }
    </style>
  </defs>
  <path class="uuid-e18d256c-7726-4ef6-9436-cfe9dfab25b7" d="m246.69,98.64c.94-1.17,1.85-2.8,1.87-4.22.13-13.6.07-27.2.05-40.79,0-.35-.16-.7-.29-1.25h-22.16v22.37h0c0,4.29.03,8.48-.03,12.67,0,.56-.38,1.15-.68,1.67-.24.43-.62.78-.94,1.16-3.61,4.28-6.44,10.19-11.05,12.37-4.6,2.17-10.98.65-16.57.67-8.1.04-16.2.12-24.29-.09-1.59-.04-3.42-1.04-4.65-2.14-1.84-1.64-2.99-4.06-4.87-5.63-6.62-5.54-6.62-12.75-5.56-20.68v-22.37h-22.81v9.78c0,10.35-.11,20.71.1,31.06.04,1.9.92,4.09,2.09,5.62,4.11,5.32,8.52,10.4,13.02,15.81-6.33,7.82-12.59,15.54-18.85,23.27-1.81,2.23-3.35,4.75-5.47,6.63-7.71,6.87-9.28,15.36-9.05,25.4.61,26.18.24,52.39.14,78.59-1.9,24.35,13.83,49.22,19.88,57.6,13.35,18.49,32,29.61,53.73,35.82,1,.29,2.25.21,3.26-.11,39.65-12.23,64.23-38.19,71.87-79.34.97-5.23,1.1-10.67,1.12-16.02.1-29.07.1-58.14-.05-87.2-.01-2.24-1.1-4.73-2.36-6.65-2.11-3.21-4.77-6.06-6.92-8.71-2.55-3.15-20.79-25.62-23.77-29.3,4.53-5.43,8.97-10.65,13.25-15.99Zm-90.8,44.34c4.08-5.04,8.08-10.15,12.33-15.04.98-1.13,2.84-2.07,4.31-2.09,12.72-.16,25.45-.14,38.18-.03,1.32.01,3.07.52,3.88,1.45,4.01,4.59,12.72,16.49,16.52,21.16-9.29.19-12.86.11-19-.02-19.82-.43-39.66-.16-60.41-.16,1.68-2.12,2.93-3.7,4.19-5.27Zm63.38,160.22c-7.3,6.6-15.68,11.45-24.97,14.68-1.3.45-3.01.72-4.24.28-27.01-9.82-43.62-28.75-49.55-56.93-.12-.56-.07-1.16-.11-2.04h102.83c-2.9,17.51-10.85,32.16-23.96,44.01Zm14.54-132.54c3.21.24,6.45.05,10.15.05v65.52h-104.53v-65.26h91c1.03-.29,2.13-.4,3.38-.31Z"/>
  <path d="m382.79,178.66c-2.42-33.42-12.72-64.13-31.24-92.02-4.98-7.5-10.73-14.49-15.77-21.24-7.83-9.79-36.39-32.2-47.05-38.27C234.03-4.01,176.65-8.9,118.7,15.35,54.91,42.04,16.43,90.83,2.98,158.89c-1.39,7.06-2.01,14.27-2.98,21.42v23.21c.22,1.2.46,2.39.65,3.59,1.8,11.05,2.87,22.28,5.53,33.12,7.32,29.83,21.68,56.09,42.12,79.2,16.16,26.62,77.85,56.78,109.58,61.49,7.5,1.11,15.04,2.01,22.56,3h23.21c1.08-.22,2.16-.56,3.25-.64,13.61-.99,26.92-3.51,39.99-7.41,85.77-25.62,142.38-107.86,135.9-197.21Zm-125.58-34.72c2.15,2.65,4.81,5.5,6.92,8.71,1.27,1.92,2.35,4.41,2.36,6.65.15,29.07.16,58.14.05,87.2-.02,5.35-.15,10.79-1.12,16.02-7.64,41.15-32.22,67.11-71.87,79.34-1.01.31-2.26.39-3.26.11-21.72-6.21-40.38-17.33-53.73-35.82-6.05-8.38-21.78-33.25-19.88-57.6.11-26.2.47-52.41-.14-78.59-.23-10.04,1.34-18.53,9.05-25.4,2.11-1.88,3.66-4.4,5.47-6.63,6.26-7.73,12.51-15.45,18.85-23.27-4.49-5.41-8.91-10.5-13.02-15.81-1.18-1.52-2.06-3.71-2.09-5.62-.2-10.35-.1-20.71-.1-31.06v-9.78h22.81v22.37c-1.07,7.93-1.07,15.14,5.56,20.68,1.88,1.57,3.04,3.99,4.87,5.63,1.23,1.1,3.06,2.1,4.65,2.14,8.09.21,16.19.12,24.29.09,5.6-.02,11.97,1.5,16.57-.67,4.6-2.17,7.44-8.09,11.05-12.37.32-.38.7-.73.94-1.16.3-.52.67-1.11.68-1.67.06-4.19.03-8.37.03-12.67h0v-22.37h22.16c.13.55.29.9.29,1.25.02,13.6.08,27.2-.05,40.79-.01,1.43-.93,3.05-1.87,4.22-4.28,5.34-8.72,10.56-13.25,15.99,2.98,3.68,21.22,26.15,23.77,29.3"/>
  <path d="m140.5,261.23c5.93,28.19,22.55,47.11,49.55,56.93,1.23.45,2.94.18,4.24-.28,9.28-3.24,17.66-8.08,24.97-14.68,13.11-11.85,21.06-26.51,23.96-44.01h-102.83c.04.87,0,1.48.11,2.04Z"/>
  <path d="m230.42,170.97h-91v65.26h104.53v-65.52c-3.69,0-6.93.18-10.15-.05-1.25-.09-2.36.02-3.38.31Z"/>
  <path d="m212.11,148.41c6.14.13,9.71.21,19,.02-3.8-4.67-12.51-16.57-16.52-21.16-.81-.93-2.56-1.44-3.88-1.45-12.72-.11-25.45-.13-38.18.03-1.47.02-3.33.97-4.31,2.09-4.25,4.89-8.25,10-12.33,15.04-1.27,1.57-2.51,3.15-4.19,5.27,20.76,0,40.59-.27,60.41.16Z"/>
</svg>