<?xml version="1.0" encoding="UTF-8" standalone="no"?>
<svg
   xmlns:dc="http://purl.org/dc/elements/1.1/"
   xmlns:cc="http://creativecommons.org/ns#"
   xmlns:rdf="http://www.w3.org/1999/02/22-rdf-syntax-ns#"
   xmlns:svg="http://www.w3.org/2000/svg"
   xmlns="http://www.w3.org/2000/svg"
   xmlns:sodipodi="http://sodipodi.sourceforge.net/DTD/sodipodi-0.dtd"
   xmlns:inkscape="http://www.inkscape.org/namespaces/inkscape"
   width="100mm"
   height="78mm"
   viewBox="0 0 100 78"
   version="1.1"
   id="svg8"
   inkscape:version="1.0 (4035a4fb49, 2020-05-01)"
   sodipodi:docname="altitude symbol.svg">
  <defs
     id="defs2">
    <marker
       inkscape:isstock="true"
       style="overflow:visible"
       id="Arrow1Mstart"
       refX="0.0"
       refY="0.0"
       orient="auto"
       inkscape:stockid="Arrow1Mstart">
      <path
         transform="scale(0.4) translate(10,0)"
         style="fill-rule:evenodd;stroke:#000000;stroke-width:1pt;stroke-opacity:1;fill:#000000;fill-opacity:1"
         d="M 0.0,0.0 L 5.0,-5.0 L -12.5,0.0 L 5.0,5.0 L 0.0,0.0 z "
         id="path1253" />
    </marker>
    <marker
       inkscape:isstock="true"
       style="overflow:visible"
       id="Arrow1Sstart"
       refX="0.0"
       refY="0.0"
       orient="auto"
       inkscape:stockid="Arrow1Sstart">
      <path
         transform="scale(0.2) translate(6,0)"
         style="fill-rule:evenodd;stroke:#000000;stroke-width:1pt;stroke-opacity:1;fill:#000000;fill-opacity:1"
         d="M 0.0,0.0 L 5.0,-5.0 L -12.5,0.0 L 5.0,5.0 L 0.0,0.0 z "
         id="path956" />
    </marker>
    <marker
       inkscape:isstock="true"
       style="overflow:visible"
       id="marker1207"
       refX="0.0"
       refY="0.0"
       orient="auto"
       inkscape:stockid="Arrow1Mstart">
      <path
         transform="scale(0.4) translate(10,0)"
         style="fill-rule:evenodd;stroke:#000000;stroke-width:1pt;stroke-opacity:1;fill:#000000;fill-opacity:1"
         d="M 0.0,0.0 L 5.0,-5.0 L -12.5,0.0 L 5.0,5.0 L 0.0,0.0 z "
         id="path950" />
    </marker>
    <inkscape:path-effect
       effect="perspective-envelope"
       up_left_point="115.66983,132.89245"
       up_right_point="457.26962,132.89245"
       down_left_point="52.436482,319.47194"
       down_right_point="463.38897,328.65098"
       id="path-effect1836"
       is_visible="true"
       lpeversion="1"
       deform_type="perspective"
       horizontal_mirror="false"
       vertical_mirror="false"
       overflow_perspective="false" />
    <inkscape:path-effect
       overflow_perspective="false"
       vertical_mirror="false"
       horizontal_mirror="false"
       deform_type="perspective"
       lpeversion="1"
       is_visible="true"
       id="path-effect1875"
       down_right_point="926.42029,328.65097"
       down_left_point="515.4678,319.47194"
       up_right_point="920.30093,132.89245"
       up_left_point="578.70114,132.89245"
       effect="perspective-envelope" />
  </defs>
  <sodipodi:namedview
     id="base"
     pagecolor="#ffffff"
     bordercolor="#666666"
     borderopacity="1.0"
     inkscape:pageopacity="0.0"
     inkscape:pageshadow="2"
     inkscape:zoom="0.98994949"
     inkscape:cx="23.450171"
     inkscape:cy="193.39766"
     inkscape:document-units="mm"
     inkscape:current-layer="g1330"
     inkscape:document-rotation="0"
     showgrid="false"
     inkscape:window-width="1920"
     inkscape:window-height="1017"
     inkscape:window-x="-8"
     inkscape:window-y="131"
     inkscape:window-maximized="1" />
  <metadata
     id="metadata5">
    <rdf:RDF>
      <cc:Work
         rdf:about="">
        <dc:format>image/svg+xml</dc:format>
        <dc:type
           rdf:resource="http://purl.org/dc/dcmitype/StillImage" />
        <dc:title />
      </cc:Work>
    </rdf:RDF>
  </metadata>
  <g
     inkscape:label="Camada 1"
     inkscape:groupmode="layer"
     id="layer1">
    <g
       id="g1991"
       transform="matrix(0.29995324,0,0,0.29995324,111.77199,-17.706896)">
      <path
         sodipodi:nodetypes="cccsssssscssssssssssscsssccsssscsscccsscsscscccsssssssccscsccsssssccccccc"
         id="path1187"
         d="m -242.44932,111.49794 -0.002,-6.87342 -10e-4,-6.873416 h -0.79839 c -0.43912,0 -3.25874,-0.10273 -6.26582,-0.2283 -24.78718,-1.03503 -54.65962,-2.1709 -55.23727,-2.10035 -1.16326,0.14209 -19.89557,-0.40283 -20.38809,-0.59308 -0.85677,-0.33096 -0.84537,-0.002 -0.46703,-13.483329 0.19107,-6.80886 0.38317,-12.792766 0.42689,-13.297566 l 0.0795,-0.91781 -15.75083,-0.41971 c -8.66296,-0.23084 -15.93797,-0.45535 -16.1667,-0.49891 -0.22873,-0.0436 -0.56187,-0.26193 -0.74031,-0.48526 -0.30688,-0.38409 -0.31952,-0.51783 -0.23356,-2.47218 0.05,-1.13636 0.13507,-2.18129 0.18909,-2.32207 0.054,-0.14078 0.29252,-0.35643 0.53,-0.47924 0.44319,-0.22918 3.66495,-0.15808 41.45546,0.91492 4.38608,0.12453 16.92911,0.47227 27.87342,0.77275 13.90783,0.38184 20.01265,0.60017 20.2771,0.72518 0.67176,0.31757 0.77371,0.78161 0.66099,3.00866 -0.0994,1.96428 -0.11578,2.03938 -0.53592,2.45952 l -0.43337,0.43338 -2.38947,-0.0958 c -1.3142,-0.0527 -8.67807,-0.26347 -16.36414,-0.46833 -7.68608,-0.20487 -14.52152,-0.39047 -15.18988,-0.41245 l -1.21519,-0.04 0.0461,1.82279 c 0.0253,1.00253 -0.0541,5.206324 -0.17649,9.341767 -0.12241,4.135438 -0.2115,7.528428 -0.19798,7.539978 0.0135,0.0115 13.18281,0.54015 29.26509,1.17468 16.08228,0.63453 29.80444,1.19515 30.49368,1.24581 l 1.25316,0.0921 v -0.47624 c 0,-0.3031 0.13555,-0.61178 0.37284,-0.84907 l 0.37284,-0.37285 h 35.40622 35.40621 l 0.37285,0.37285 c 0.2358,0.23579 0.37284,0.54625 0.37284,0.8446 v 0.47177 l 1.40506,-0.0891 c 0.77279,-0.049 14.49494,-0.60736 30.49367,-1.24084 15.99874,-0.63348 29.09967,-1.16144 29.11321,-1.17326 0.0135,-0.0118 -0.0748,-3.40504 -0.19636,-7.540478 -0.12154,-4.135443 -0.20095,-8.322277 -0.17649,-9.304087 l 0.0445,-1.78509 -1.59494,0.002 c -0.87722,0.001 -8.77056,0.20403 -17.54078,0.45088 -17.16339,0.48309 -16.36206,0.49603 -16.77248,-0.27083 -0.0807,-0.15079 -0.16853,-1.24187 -0.1952,-2.42463 -0.0461,-2.04328 -0.0319,-2.16715 0.28425,-2.48476 0.23747,-0.23856 0.56365,-0.35088 1.13924,-0.39227 0.44357,-0.0319 20.51293,-0.60185 44.598592,-1.26655 38.84423,-1.07199 43.840685,-1.18341 44.222102,-0.98617 0.236507,0.1223 0.474198,0.33754 0.528228,0.47832 0.05401,0.14077 0.140582,1.18743 0.19238,2.32591 0.09383,2.06276 0.09281,2.07153 -0.294334,2.52181 -0.371636,0.43225 -0.450031,0.45409 -1.806881,0.50319 -0.780122,0.0282 -8.014605,0.2333 -16.076625,0.4557 l -14.65823,0.40436 0.0506,1.13924 c 0.0278,0.62658 0.20655,6.607596 0.39715,13.291139 0.37741,13.233846 0.38829,12.925066 -0.46707,13.255476 -0.5042,0.19477 -19.245612,0.73366 -20.470342,0.58861 -0.4239,-0.0502 -4.05298,0.0433 -8.06461,0.20767 -19.22507,0.78797 -52.87788,2.12546 -53.47932,2.12546 h -0.67531 l -0.002,6.873406 -0.002,6.87342 -8.82502,1.59494 h -27.32339 -27.32339 z"
         style="fill:#000000;stroke-width:0.999999" />
      <g
         style="opacity:1"
         id="g1328">
        <path
           id="path1348"
           d="M -206.29592,125.83648 V 296.7069"
           style="color:#000000;font-style:normal;font-variant:normal;font-weight:normal;font-stretch:normal;font-size:medium;line-height:normal;font-family:sans-serif;font-variant-ligatures:normal;font-variant-position:normal;font-variant-caps:normal;font-variant-numeric:normal;font-variant-alternates:normal;font-variant-east-asian:normal;font-feature-settings:normal;font-variation-settings:normal;text-indent:0;text-align:start;text-decoration:none;text-decoration-line:none;text-decoration-style:solid;text-decoration-color:#000000;letter-spacing:normal;word-spacing:normal;text-transform:none;writing-mode:lr-tb;direction:ltr;text-orientation:mixed;dominant-baseline:auto;baseline-shift:baseline;text-anchor:start;white-space:normal;shape-padding:0;shape-margin:0;inline-size:0;clip-rule:nonzero;display:inline;overflow:visible;visibility:visible;isolation:auto;mix-blend-mode:normal;color-interpolation:sRGB;color-interpolation-filters:linearRGB;solid-color:#000000;solid-opacity:1;vector-effect:none;fill:#000000;fill-opacity:1;fill-rule:nonzero;stroke:none;stroke-width:7.75788;stroke-linecap:round;stroke-linejoin:round;stroke-miterlimit:10;stroke-dasharray:none;stroke-dashoffset:0;stroke-opacity:1.0;color-rendering:auto;image-rendering:auto;shape-rendering:auto;text-rendering:auto;enable-background:accumulate;stop-color:#000000;stop-opacity:1;" />
        <path
           id="path1350"
           d="M -206.29688 121.95703 A 3.878938 3.878938 0 0 0 -210.17578 125.83594 L -210.17578 296.70703 A 3.878938 3.878938 0 0 0 -206.29688 300.58594 A 3.878938 3.878938 0 0 0 -202.41602 296.70703 L -202.41602 125.83594 A 3.878938 3.878938 0 0 0 -206.29688 121.95703 z "
           style="color:#000000;font-style:normal;font-variant:normal;font-weight:normal;font-stretch:normal;font-size:medium;line-height:normal;font-family:sans-serif;font-variant-ligatures:normal;font-variant-position:normal;font-variant-caps:normal;font-variant-numeric:normal;font-variant-alternates:normal;font-variant-east-asian:normal;font-feature-settings:normal;font-variation-settings:normal;text-indent:0;text-align:start;text-decoration:none;text-decoration-line:none;text-decoration-style:solid;text-decoration-color:#000000;letter-spacing:normal;word-spacing:normal;text-transform:none;writing-mode:lr-tb;direction:ltr;text-orientation:mixed;dominant-baseline:auto;baseline-shift:baseline;text-anchor:start;white-space:normal;shape-padding:0;shape-margin:0;inline-size:0;clip-rule:nonzero;display:inline;overflow:visible;visibility:visible;isolation:auto;mix-blend-mode:normal;color-interpolation:sRGB;color-interpolation-filters:linearRGB;solid-color:#000000;solid-opacity:1;vector-effect:none;fill:#000000;fill-opacity:1;fill-rule:nonzero;stroke:none;stroke-width:7.75788;stroke-linecap:round;stroke-linejoin:round;stroke-miterlimit:10;stroke-dasharray:none;stroke-dashoffset:0;stroke-opacity:1.0;color-rendering:auto;image-rendering:auto;shape-rendering:auto;text-rendering:auto;enable-background:accumulate;stop-color:#000000;stop-opacity:1;" />
        <g
           id="g1330">
          <g
             transform="matrix(1.230653,0,0,0.62804068,47.58276,115.25643)"
             style="opacity:1"
             id="g1342">
            <path
               id="path1344"
               d="m -206.29592,265.6754 -15.51575,-15.51576 15.51575,54.30514 15.51575,-54.30514 z"
               style="color:#000000;font-style:normal;font-variant:normal;font-weight:normal;font-stretch:normal;font-size:medium;line-height:normal;font-family:sans-serif;font-variant-ligatures:normal;font-variant-position:normal;font-variant-caps:normal;font-variant-numeric:normal;font-variant-alternates:normal;font-variant-east-asian:normal;font-feature-settings:normal;font-variation-settings:normal;text-indent:0;text-align:start;text-decoration:none;text-decoration-line:none;text-decoration-style:solid;text-decoration-color:#000000;letter-spacing:normal;word-spacing:normal;text-transform:none;writing-mode:lr-tb;direction:ltr;text-orientation:mixed;dominant-baseline:auto;baseline-shift:baseline;text-anchor:start;white-space:normal;shape-padding:0;shape-margin:0;inline-size:0;clip-rule:nonzero;display:inline;overflow:visible;visibility:visible;isolation:auto;mix-blend-mode:normal;color-interpolation:sRGB;color-interpolation-filters:linearRGB;solid-color:#000000;solid-opacity:1;vector-effect:none;fill:#000000;fill-opacity:1;fill-rule:evenodd;stroke:none;stroke-width:3.10315pt;stroke-linecap:butt;stroke-linejoin:miter;stroke-miterlimit:4;stroke-dasharray:none;stroke-dashoffset:0;stroke-opacity:1;color-rendering:auto;image-rendering:auto;shape-rendering:auto;text-rendering:auto;enable-background:accumulate;stop-color:#000000;stop-opacity:1" />
            <path
               id="path1346"
               d="m -225.99414,243.05078 19.69726,68.94531 19.69922,-68.94531 -19.69922,19.69922 z m 8.36523,14.21875 11.33203,11.33203 1.4629,-1.46289 9.87109,-9.86914 -11.33399,39.66406 z"
               style="color:#000000;font-style:normal;font-variant:normal;font-weight:normal;font-stretch:normal;font-size:medium;line-height:normal;font-family:sans-serif;font-variant-ligatures:normal;font-variant-position:normal;font-variant-caps:normal;font-variant-numeric:normal;font-variant-alternates:normal;font-variant-east-asian:normal;font-feature-settings:normal;font-variation-settings:normal;text-indent:0;text-align:start;text-decoration:none;text-decoration-line:none;text-decoration-style:solid;text-decoration-color:#000000;letter-spacing:normal;word-spacing:normal;text-transform:none;writing-mode:lr-tb;direction:ltr;text-orientation:mixed;dominant-baseline:auto;baseline-shift:baseline;text-anchor:start;white-space:normal;shape-padding:0;shape-margin:0;inline-size:0;clip-rule:nonzero;display:inline;overflow:visible;visibility:visible;isolation:auto;mix-blend-mode:normal;color-interpolation:sRGB;color-interpolation-filters:linearRGB;solid-color:#000000;solid-opacity:1;vector-effect:none;fill:#000000;fill-opacity:1;fill-rule:evenodd;stroke:none;stroke-width:3.10315pt;stroke-linecap:butt;stroke-linejoin:miter;stroke-miterlimit:4;stroke-dasharray:none;stroke-dashoffset:0;stroke-opacity:1;color-rendering:auto;image-rendering:auto;shape-rendering:auto;text-rendering:auto;enable-background:accumulate;stop-color:#000000;stop-opacity:1" />
          </g>
          <g
             id="g1374"
             style="opacity:1"
             transform="matrix(1.230653,0,0,-0.62804068,47.58276,311.03554)">
            <path
               style="color:#000000;font-style:normal;font-variant:normal;font-weight:normal;font-stretch:normal;font-size:medium;line-height:normal;font-family:sans-serif;font-variant-ligatures:normal;font-variant-position:normal;font-variant-caps:normal;font-variant-numeric:normal;font-variant-alternates:normal;font-variant-east-asian:normal;font-feature-settings:normal;font-variation-settings:normal;text-indent:0;text-align:start;text-decoration:none;text-decoration-line:none;text-decoration-style:solid;text-decoration-color:#000000;letter-spacing:normal;word-spacing:normal;text-transform:none;writing-mode:lr-tb;direction:ltr;text-orientation:mixed;dominant-baseline:auto;baseline-shift:baseline;text-anchor:start;white-space:normal;shape-padding:0;shape-margin:0;inline-size:0;clip-rule:nonzero;display:inline;overflow:visible;visibility:visible;isolation:auto;mix-blend-mode:normal;color-interpolation:sRGB;color-interpolation-filters:linearRGB;solid-color:#000000;solid-opacity:1;vector-effect:none;fill:#000000;fill-opacity:1;fill-rule:evenodd;stroke:none;stroke-width:3.10315pt;stroke-linecap:butt;stroke-linejoin:miter;stroke-miterlimit:4;stroke-dasharray:none;stroke-dashoffset:0;stroke-opacity:1;color-rendering:auto;image-rendering:auto;shape-rendering:auto;text-rendering:auto;enable-background:accumulate;stop-color:#000000;stop-opacity:1"
               d="m -206.29592,265.6754 -15.51575,-15.51576 15.51575,54.30514 15.51575,-54.30514 z"
               id="path1370" />
            <path
               style="color:#000000;font-style:normal;font-variant:normal;font-weight:normal;font-stretch:normal;font-size:medium;line-height:normal;font-family:sans-serif;font-variant-ligatures:normal;font-variant-position:normal;font-variant-caps:normal;font-variant-numeric:normal;font-variant-alternates:normal;font-variant-east-asian:normal;font-feature-settings:normal;font-variation-settings:normal;text-indent:0;text-align:start;text-decoration:none;text-decoration-line:none;text-decoration-style:solid;text-decoration-color:#000000;letter-spacing:normal;word-spacing:normal;text-transform:none;writing-mode:lr-tb;direction:ltr;text-orientation:mixed;dominant-baseline:auto;baseline-shift:baseline;text-anchor:start;white-space:normal;shape-padding:0;shape-margin:0;inline-size:0;clip-rule:nonzero;display:inline;overflow:visible;visibility:visible;isolation:auto;mix-blend-mode:normal;color-interpolation:sRGB;color-interpolation-filters:linearRGB;solid-color:#000000;solid-opacity:1;vector-effect:none;fill:#000000;fill-opacity:1;fill-rule:evenodd;stroke:none;stroke-width:3.10315pt;stroke-linecap:butt;stroke-linejoin:miter;stroke-miterlimit:4;stroke-dasharray:none;stroke-dashoffset:0;stroke-opacity:1;color-rendering:auto;image-rendering:auto;shape-rendering:auto;text-rendering:auto;enable-background:accumulate;stop-color:#000000;stop-opacity:1"
               d="m -225.99414,243.05078 19.69726,68.94531 19.69922,-68.94531 -19.69922,19.69922 z m 8.36523,14.21875 11.33203,11.33203 1.4629,-1.46289 9.87109,-9.86914 -11.33399,39.66406 z"
               id="path1372" />
          </g>
        </g>
      </g>
      <path
         id="path1161"
         d="M -368.72217,315.58213 H -43.869677"
         style="fill:#000000;stroke:#000000;stroke-width:6.4252;stroke-linecap:round;stroke-linejoin:round;stroke-miterlimit:10;stroke-dasharray:none" />
    </g>
  </g>
</svg>
