<?xml version="1.0" encoding="utf-8"?>
<!-- Svg Vector Icons : http://www.onlinewebfonts.com/icon -->
<!DOCTYPE svg PUBLIC "-//W3C//DTD SVG 1.1//EN" "http://www.w3.org/Graphics/SVG/1.1/DTD/svg11.dtd">
<svg version="1.1" xmlns="http://www.w3.org/2000/svg" xmlns:xlink="http://www.w3.org/1999/xlink" x="0px" y="0px" viewBox="0 0 256 256" enable-background="new 0 0 256 256" xml:space="preserve">
<metadata> Svg Vector Icons : http://www.onlinewebfonts.com/icon </metadata>
<g><g><g><path fill="#000000" d="M109.4,110.1c-17.7,17.7-18.3,18.4-18.3,20.1c0,2.5,2.4,4.9,4.9,4.9c1.7,0,2.3-0.6,16.9-15.1l15.1-15.1l15.1,15.1c14.6,14.5,15.2,15.1,16.9,15.1c2.5,0,4.9-2.4,4.9-4.9c0-1.7-0.6-2.4-18.3-20.1C136.5,100,128.1,91.8,128,91.8S119.5,100,109.4,110.1z"/><path fill="#000000" d="M144.7,97.6c-0.9,0.6-1,1.1-1,3.5v2.9l5.8,5.8l5.8,5.8v-8.6c0-10.3,0.2-10-5.8-10C146.8,96.8,145.4,97.1,144.7,97.6z"/><path fill="#000000" d="M33.7,106.8C23.6,108,10,111.3,10,112.7c0,1,8.2,3.4,17.3,5.1c6.5,1.2,21.2,1.4,28.8,0.5c8.9-1.1,20.7-4.2,20.9-5.5c0.2-1.2-11.8-4.4-20.6-5.5C51.5,106.6,37.8,106.3,33.7,106.8z"/><path fill="#000000" d="M199,107.2c-8.4,1.2-20.1,4.4-20,5.5c0.1,1.3,12,4.4,20.9,5.5c7.6,1,22.3,0.7,28.8-0.5c8.7-1.6,17.3-4.1,17.3-5.1c0-1-8.7-3.5-17.3-5.1C222.8,106.5,205.4,106.3,199,107.2z"/><path fill="#000000" d="M113.6,123c-10.1,10.1-14.1,14.4-14.1,15.2v1H72.9H46.5l-0.1-7.3l-0.1-7.2l-2.6-0.1l-2.7-0.1v7.6v7.6l-1.8,0.3c-2.2,0.3-4.6,2.2-5.4,4.3c-1.8,4.2,0.8,13.9,4.6,17.7c6.6,6.5,15.4-1.3,15.5-14l0-3.1h22.8h22.8l0.1,9.3l0.1,9.4H128h28.3l0.1-9.4l0.1-9.3h22.7H202l0.1,3.2c0.2,10,6,17.7,12,16c2.4-0.6,5.6-4.1,6.9-7.5c1.3-3.5,2.2-8.8,1.8-11.1c-0.5-2.4-3.3-5.2-5.8-5.6l-1.8-0.3l-0.1-7.9l-0.1-7.9h-2.5h-2.5l-0.1,7.7l-0.1,7.7h-26.5h-26.5v-1.1c0-0.7-4-5-14.2-15.2c-7.8-7.8-14.2-14.1-14.4-14.1C127.9,108.8,121.4,115.2,113.6,123z M125.7,134.8v5.3h-5.1c-4.8,0-5.1,0-5.1-0.9c0-2.6,3.8-7.3,7.1-8.8C125.7,129,125.7,128.9,125.7,134.8z M133.3,130.4c2.4,1.1,5.1,3.8,6.2,6.2c1.6,3.5,1.5,3.5-4.2,3.5h-5.1v-5.3C130.3,128.9,130.3,129,133.3,130.4z M125.7,149.6c0,5.3,0,5.3-1,5c-3.5-1.1-7.2-4.2-8.5-7.4c-1.2-2.9-1.2-3,4.4-3h5.1V149.6L125.7,149.6z M140.4,145c0,3.3-4.6,8.3-8.9,9.5l-1.3,0.4v-5.3v-5.3h5.1C139.6,144.3,140.4,144.4,140.4,145z"/></g></g></g>
</svg>