<?xml version="1.0" encoding="utf-8"?>
<!-- Svg Vector Icons : http://www.onlinewebfonts.com/icon -->
<!DOCTYPE svg PUBLIC "-//W3C//DTD SVG 1.1//EN" "http://www.w3.org/Graphics/SVG/1.1/DTD/svg11.dtd">
<svg version="1.1" xmlns="http://www.w3.org/2000/svg" xmlns:xlink="http://www.w3.org/1999/xlink" x="0px" y="0px" viewBox="0 0 256 256" enable-background="new 0 0 256 256" xml:space="preserve">
<metadata> Svg Vector Icons : http://www.onlinewebfonts.com/icon </metadata>
<g><g><g><path fill="#000000" d="M32.9,56.9C23.7,58,10,61.5,10,62.9c0,0.8,3.1,1.9,9.7,3.5C36.9,70.5,56,70,72.2,64.9c4-1.2,5.3-1.9,4.7-2.5c-0.8-0.7-11.3-3.6-16.8-4.6C53.5,56.7,39.3,56.2,32.9,56.9z"/><path fill="#000000" d="M202.1,56.9c-7.6,0.8-21.6,4.1-23,5.5c-1.7,1.6,14.5,5.6,26.2,6.6c9.8,0.8,20.9-0.1,31-2.6c6.6-1.6,9.7-2.7,9.7-3.5c0-1.4-14-4.9-23.7-6C216.8,56.3,207.5,56.4,202.1,56.9z"/><path fill="#000000" d="M209.7,81.8v7.9H128H46.3v-7.4v-7.4h-2.8h-2.8v7.3v7.3l-2,0.5c-5.4,1.5-6.9,5.5-4.9,13.3c1.7,6.5,4.7,10.4,8.6,11.2c5.7,1.1,11.3-7,11.3-16.3v-3.4h74.3h74.2l0,3c0.1,5.8,2.1,11.3,5.1,14.3c5.7,5.8,12.8,1.2,15.1-9.7c0.9-4.2,0.8-6-0.2-8.3c-0.9-2.1-3-3.6-5.4-4.1l-1.5-0.3v-7.8V74h-2.8h-2.8L209.7,81.8L209.7,81.8z"/><path fill="#000000" d="M117.5,97.2c-0.7,0.7-0.7,2,0.1,2.6c0.4,0.4,3.6,0.5,10.7,0.4c9-0.1,10.1-0.2,10.6-1c0.4-0.6,0.4-1,0-1.6c-0.5-0.7-1.6-0.8-10.6-0.9C120.7,96.6,117.9,96.8,117.5,97.2z"/><path fill="#000000" d="M117.5,102.7c-0.7,0.7-0.7,2,0.1,2.6c0.4,0.4,3.6,0.5,10.7,0.4c9-0.1,10.1-0.2,10.6-1c0.4-0.6,0.4-1,0-1.6c-0.5-0.7-1.6-0.8-10.6-0.9C120.7,102.2,117.9,102.3,117.5,102.7z"/><path fill="#000000" d="M117.5,108.3c-0.7,0.7-0.7,2,0.1,2.6c0.4,0.4,3.6,0.5,10.7,0.4c9-0.1,10.1-0.2,10.6-1c0.4-0.6,0.4-1,0-1.6c-0.5-0.7-1.6-0.8-10.6-0.9C120.7,107.7,117.9,107.8,117.5,108.3z"/><path fill="#000000" d="M77.5,111.2c-1,1-0.9,2.2,0.1,3.1c2,1.7,21.8,13.3,22.5,13.2c0.4-0.1,1.2-0.7,1.7-1.4c1.8-2.4,1.3-2.9-10.6-9.4c-6-3.3-11.4-6-12-6.1C78.7,110.5,77.9,110.8,77.5,111.2z"/><path fill="#000000" d="M164.7,116.7c-9.5,5.2-11.1,6.3-11.2,7.3c-0.1,1.3,1.4,3.6,2.4,3.6c0.6,0,21.1-12.1,22.5-13.3c0.4-0.4,0.8-1.1,0.8-1.5c0-1-1.5-2.3-2.6-2.3C176.2,110.6,170.8,113.3,164.7,116.7z"/><path fill="#000000" d="M115.8,115.7c-0.9,1.3-3.2,4.2-5.1,6.3c-10.7,12.1-10.9,26.5-0.6,36.8c5,5,11.1,7.6,18,7.6c11.7,0,22.6-9.1,24.8-20.7c1.2-6-0.4-13.3-3.9-18.8c-0.8-1.2-3-4-4.8-6c-1.8-2-3.9-4.6-4.6-5.7l-1.2-1.9h-3.6c-2,0-3.6,0.1-3.6,0.3c0,0.2,1.9,6.3,4.3,13.6c2.4,7.3,4.2,13.4,4.1,13.7c-0.1,0.3-0.6,0.6-1,0.6c-0.7,0-1.6-2.2-5.4-14c-3.1-9.6-4.7-13.9-5.2-13.9c-0.5,0-2.1,4.3-5.2,13.9c-3.7,11.5-4.7,14-5.4,14c-0.5,0-0.9-0.3-1-0.6c-0.1-0.3,1.7-6.5,4.1-13.7c2.4-7.3,4.3-13.3,4.3-13.5c0-0.2-1.6-0.3-3.6-0.3h-3.6L115.8,115.7z M123.5,139.8c0.6,1.2,1.2,2.1,1.3,2.1s0.9-0.9,1.5-2.1c0.7-1.2,1.4-2.1,1.7-2.1c0.2,0,1,1,1.7,2.3l1.3,2.3l1-2.1c1.1-2.2,2.1-3,2.9-2.2c0.7,0.7-2.8,7.5-3.8,7.5c-0.4,0-1.2-0.8-1.8-1.8c-0.6-1-1.2-1.8-1.4-1.8c-0.2,0-0.8,0.8-1.4,1.8c-0.6,1-1.4,1.8-1.8,1.8c-0.8,0-4.3-6.7-3.9-7.4C121.4,137.2,122.6,137.9,123.5,139.8z"/><path fill="#000000" d="M75.4,138.5c-2.7,0.1-5.1,0.4-5.4,0.7c-0.9,0.7-0.7,3,0.3,3.6c0.6,0.3,4.2,0.5,8.8,0.5c7.3,0,7.9,0,8.4-0.9c0.7-1.3,0.6-2.3-0.5-3.3c-0.7-0.7-1.5-0.9-3.8-0.8C81.5,138.3,78,138.5,75.4,138.5z"/><path fill="#000000" d="M169.2,138.9c-1.2,0.8-1.3,2.1-0.6,3.5c0.5,0.8,1.1,0.9,8.4,0.9c4.5,0,8.2-0.2,8.8-0.5c1-0.6,1.2-2.9,0.3-3.6c-0.3-0.3-4-0.6-8.2-0.8C171.3,138.2,170.1,138.2,169.2,138.9z"/><path fill="#000000" d="M88.4,160.7c-5.6,3.5-10.6,6.7-11.1,7.2c-0.7,0.7-0.7,0.9-0.1,2.1c0.4,0.7,1.1,1.3,1.5,1.4c0.8,0.1,21.3-10.8,23.1-12.3c1.6-1.4,0.3-4.8-1.9-4.7C99.2,154.4,94.5,157,88.4,160.7z"/><path fill="#000000" d="M154.1,155.5c-1.2,1.8-0.9,2.9,1,4.1c0.9,0.6,6.1,3.5,11.5,6.5c6.9,3.8,10.1,5.3,10.8,5.1c1.1-0.4,1.9-1.8,1.6-2.9c-0.4-1.1-21.7-13.9-23.1-13.9C155.3,154.4,154.6,154.8,154.1,155.5z"/><path fill="#000000" d="M125.7,171.7c-0.5,0.6-0.6,3.4-0.3,13.4c0.2,7,0.5,13,0.6,13.4c0.4,1.1,2.4,1.3,3.3,0.5c0.8-0.7,0.9-2,1.2-13.7c0.3-9.9,0.2-13.1-0.2-13.6C129.6,170.7,126.4,170.8,125.7,171.7z"/><path fill="#000000" d="M105.3,175.7c-1,0.8-7.8,13.1-7.8,14.2c0,0.5,0.4,1.2,0.9,1.7c0.7,0.6,1.2,0.7,2,0.4c1.3-0.6,8.6-12.7,8.6-14.2c0-1.1-1.5-2.5-2.5-2.5C106.2,175.1,105.7,175.4,105.3,175.7z"/><path fill="#000000" d="M148,175.9c-1.6,1.1-1.2,2.7,2,8.2c4,6.6,5.1,8.1,6.1,8.1c1,0,2.4-1.4,2.4-2.3s-6.9-13.5-7.8-14.2C149.8,175,149.2,175,148,175.9z"/></g></g></g>
</svg>