<?xml version="1.0" encoding="utf-8"?>
<!-- Svg Vector Icons : http://www.onlinewebfonts.com/icon -->
<!DOCTYPE svg PUBLIC "-//W3C//DTD SVG 1.1//EN" "http://www.w3.org/Graphics/SVG/1.1/DTD/svg11.dtd">
<svg version="1.1" xmlns="http://www.w3.org/2000/svg" xmlns:xlink="http://www.w3.org/1999/xlink" x="0px" y="0px" viewBox="0 0 256 256" enable-background="new 0 0 256 256" xml:space="preserve">
<metadata> Svg Vector Icons : http://www.onlinewebfonts.com/icon </metadata>
<g><g><g><path fill="#000000" d="M116.8,30.3c-0.8,0.4-0.8,2.2-0.8,26v25.6h-5c-8.8,0-8.8,0.2,5,16.7c7.7,9.2,11.3,13.3,12,13.3c0.6,0,4.3-4.1,12-13.3c13.8-16.5,13.8-16.7,5-16.7h-5V56.3c0-24.8,0-25.6-0.9-26C137.9,29.7,117.9,29.7,116.8,30.3z"/><path fill="#000000" d="M38.6,90.1c-4.6,0.2-11.2,1.1-15.7,2.1C17.3,93.3,10,95.6,10,96.2c0,0.7,2.7,1.7,8.4,3.2c9.4,2.5,13.8,3,25.4,3c11.7,0,16.9-0.7,26.7-3.5c6.2-1.8,7.1-2.2,6.2-3c-0.9-0.9-9.5-3.3-15.4-4.4c-4.7-0.9-16.5-1.9-19.1-1.8C41.6,89.9,40,90,38.6,90.1z"/><path fill="#000000" d="M205.2,90.2c-6.5,0.5-14.4,1.9-20.5,3.7c-5.4,1.6-6.7,2.3-5.1,3.2c1.7,0.9,12.2,3.6,17.4,4.5c7,1.2,23.7,1.2,30.7,0c8.6-1.4,18.4-4.3,18.4-5.3c0-0.6-7.3-2.9-12.9-4.1C224.4,90.3,213.9,89.5,205.2,90.2z"/><path fill="#000000" d="M209.9,107.6c-0.2,0.1-0.3,3.7-0.3,7.8v7.5l-26.1-0.1l-26.1-0.1l-0.4-1.6c-0.2-0.9-0.6-1.9-0.9-2.2c-0.4-0.4-6.5-0.6-28-0.6c-21.5,0-27.7,0.1-28,0.6c-0.3,0.3-0.6,1.3-0.9,2.2l-0.4,1.6l-26.1,0.1l-26.1,0.1l-0.1-7.2l-0.1-7.3l-2.6-0.1l-2.6-0.1l-0.1,7.5l-0.1,7.5l-1.6,0.3c-1.8,0.4-3.5,1.6-4.8,3.4c-0.8,1-1,1.9-1,4.8c0,6.4,2.8,12.5,6.7,15.2c2.3,1.5,5.8,1.2,8.2-0.6c3.3-2.7,5.7-8.8,5.8-14.8l0-3h18.5H91l2.9,6.2c1.6,3.4,3.2,6.5,3.5,6.7c0.4,0.3,3.8,0.5,9.7,0.5h9.1l2.7,1.8c3.3,2.2,5.1,2.8,9.1,2.8s5.8-0.6,9.1-2.8l2.7-1.8l8.8,0c5.3,0,9.1-0.2,9.7-0.5c0.5-0.3,2.2-3.2,3.8-6.7l2.9-6.3h18.5H202l0.1,3c0.2,8.8,4.4,15.7,9.7,16.3c2.5,0.2,4.2-0.5,6.2-2.5c2.9-3,5.3-10.5,4.8-15c-0.3-3.3-2.7-6.1-5.9-6.7l-1.6-0.3l-0.1-7.9l-0.1-7.9h-2.5C211.3,107.2,210,107.4,209.9,107.6z"/><path fill="#000000" d="M115.6,153.4c-35.9,1.5-67,10.4-79.3,22.5c-3.6,3.5-5.2,6.1-6.2,10.1c-5.6,22.1,38.5,40.1,98,40.1c48.9,0,88.6-12.3,96.9-29.8c2.8-5.9,1.8-12.3-2.8-17.9c-9.1-11.3-33-20.1-64.4-23.7c-7.4-0.8-27-1.9-31.8-1.8C124.9,153,120.3,153.2,115.6,153.4z M146.2,161.2c31.9,2.4,57.9,10,68.6,20.2c2.5,2.4,4.4,6,4.4,8.4c0,5.9-7.7,12.4-20.3,17.6c-37.2,15.1-104.7,15.1-141.9,0c-12.6-5.1-20.3-11.8-20.3-17.6c0-7.2,10.8-15.1,28.3-20.7c12.5-4,26.7-6.4,47.1-8C116.8,160.7,140.4,160.8,146.2,161.2z"/><path fill="#000000" d="M117.9,168.6c-14.5,0.9-28.6,4.1-36.6,8.4c-3.6,1.9-7.7,5.8-8.9,8.4c-1.3,2.9-1.2,5.9,0.2,8.9c4.1,8.2,20.2,14.3,43.1,16.3c7.7,0.7,25,0.3,32.3-0.7c26.1-3.6,39.6-12.3,36.3-23.5c-0.7-2.5-5.7-7.4-9.4-9.4c-8.5-4.4-21.8-7.4-37.6-8.4C128.9,168,126.4,168,117.9,168.6z M143.2,176.4c14.9,1.6,27.4,5.4,32.3,10c2.4,2.2,2.4,3.6,0.2,5.9c-3.9,4.3-14.1,7.8-29,10.1c-7.9,1.2-29.5,1.2-37.3,0c-15-2.3-25.2-5.8-29-10.1c-2.7-2.9-2-4.7,2.6-7.8C93.9,177.6,120,174,143.2,176.4z"/></g></g></g>
</svg>