<?xml version="1.0" encoding="utf-8"?>
<!-- Svg Vector Icons : http://www.onlinewebfonts.com/icon -->
<!DOCTYPE svg PUBLIC "-//W3C//DTD SVG 1.1//EN" "http://www.w3.org/Graphics/SVG/1.1/DTD/svg11.dtd">
<svg version="1.1" xmlns="http://www.w3.org/2000/svg" xmlns:xlink="http://www.w3.org/1999/xlink" x="0px" y="0px" viewBox="0 0 256 256" enable-background="new 0 0 256 256" xml:space="preserve">
<metadata> Svg Vector Icons : http://www.onlinewebfonts.com/icon </metadata>
<g><g><g><path fill="#FFFFFF" d="M122.5,10.2c-3.7,0.7-8,1.9-10.7,3c-10,4.1-19.2,13.1-23.2,23.1c-4.1,9.8-4.4,19.7-1.1,33.4c0.5,2,0.8,3.7,0.8,3.7c0,0-16.3-4.6-36.1-10.2c-19.8-5.7-36.3-10.3-36.8-10.3c-1.6,0-3.9,1.4-4.7,2.9c-0.7,1.4-0.8,7.6-0.6,83.6l0.1,82.2l1.2,1.2c1.1,1,6.9,2.8,39.6,12.2c21.2,6,38.9,11,39.5,11c1.6,0,3.7-1.2,4.5-2.8c0.6-1.1,0.7-4.2,0.7-19.8c0-10.1,0.1-18.4,0.3-18.4c0.4,0,32.4,19.5,32.3,19.7c0,0.1-4.2,1.4-9.2,2.9c-5,1.5-9.6,3-10.2,3.5c-4.2,2.8-2.2,9.5,3,9.5c0.7,0,13.2-3.5,27.6-7.8l26.2-7.9l37.2,10.6c20.4,5.8,37.6,10.6,38.1,10.6c1.6,0,3.6-1.3,4.4-2.8c0.6-1.2,0.7-10.9,0.7-83.1c0-80.1,0-81.8-0.9-83.2c-0.5-0.8-1.2-1.7-1.7-1.9c-0.5-0.2-15.9-4.7-34.3-10c-18.4-5.3-34.5-9.9-35.8-10.2l-2.4-0.7l-0.3-4.2c-1.2-18.3-14.2-33.9-32.1-38.6C134.8,10.3,125.4,9.7,122.5,10.2z M136.8,22c10.7,2.9,19.5,12,22.4,23c1.1,4,1,11.8,0,17.5c-1.8,9.6-6.1,22.1-12.9,38C141.4,112,128.9,137,128,137c-0.8,0-9.8-17.3-15.3-29.4c-12.7-27.8-18.2-47.5-16.6-58.8c1.6-11.5,8.9-21.1,19.5-25.5C122.3,20.4,129.6,20,136.8,22z M55.8,75.4C74.6,80.8,90.4,85,90.9,85c0.8-0.1,1.2,0.5,2.9,5.2c4.7,12.7,13.9,32.6,21.8,47.2c4.7,8.8,5.1,9.3,7.6,10.8c3.9,2.3,9.8,1.2,12.4-2.3c3-4,16.2-30.4,21.9-44.1c1.3-3.2,2.5-5.9,2.6-5.9c0.1-0.1,0.2,8.8,0.2,19.9v20l-22.9,33.7c-12.5,18.5-23,33.7-23.1,33.7c-0.2,0-4.4-2.4-9.3-5.3l-9-5.4l-0.2-46.6c-0.2-35.3-0.4-46.7-0.8-47.5c-0.6-1.1-3.2-2.5-4.5-2.5c-1.3,0-3.9,1.4-4.5,2.5c-0.4,0.7-0.6,11.5-0.8,44.1l-0.2,43.2l-32.2-19.5l-32.1-19.6v-40.5c0-32.2,0.1-40.4,0.6-40.3C21.4,65.6,37.1,70.1,55.8,75.4z M189.4,70.7c7.6,2.2,12.3,3.7,12.2,4c-0.2,0.6-29.7,44-30.3,44.8c-0.2,0.2-0.4-11.8-0.4-26.8V65.3l3.1,0.9C175.7,66.7,182.7,68.7,189.4,70.7z M223.9,80.5c5.4,1.6,10.3,2.9,10.7,3c0.7,0.2,0.8,2.2,0.8,33c0,18-0.2,32.7-0.4,32.7c-0.8,0-47.3-34.2-47.2-34.7c0.4-1.4,25.2-37.2,25.6-37C213.7,77.6,218.4,79,223.9,80.5z M208.4,143.3l26.7,19.5l0.1,35.4c0.1,28.3,0,35.4-0.5,35.2c-0.3-0.1-16.1-4.6-35-10l-34.3-9.8l-11.7,3.5l-11.6,3.5l-1.5-1c-0.8-0.6-5-3.2-9.4-5.8l-7.9-4.8l4.7-7c2.6-3.8,10.8-16,18.3-26.9l13.6-20l0.2,22.3c0.2,24,0.2,23.7,2.8,25c1.7,0.9,3.4,0.9,5.1,0c2.9-1.5,2.8-0.5,2.8-33.4v-29.9l5.2-7.7c2.8-4.2,5.3-7.6,5.4-7.6S193.7,132.6,208.4,143.3z M53.6,179l31.5,19.2v17.7c0,14-0.1,17.7-0.6,17.5c-0.3-0.1-13.5-3.9-29.2-8.3c-15.7-4.5-30-8.6-31.7-9.1l-3.1-0.9v-27.9c0-25.2,0.1-27.9,0.7-27.7C21.7,159.6,36.2,168.4,53.6,179z"/><path fill="#FFFFFF" d="M121.4,32.5c-15.3,4.9-19.9,24.6-8.3,35.7c8.5,8.1,21.1,8.1,29.6,0c11.7-11.1,7-30.9-8.4-35.7C130.7,31.3,125,31.4,121.4,32.5z M132,43c3.9,1.6,6.5,5.5,6.5,9.9c0,5.9-4.7,10.6-10.6,10.6c-9.3,0-14.1-11.2-7.7-17.9C123.2,42.4,128.2,41.3,132,43z"/></g></g></g>
</svg>