<?xml version="1.0" encoding="utf-8"?>
<!-- Svg Vector Icons : http://www.onlinewebfonts.com/icon -->
<!DOCTYPE svg PUBLIC "-//W3C//DTD SVG 1.1//EN" "http://www.w3.org/Graphics/SVG/1.1/DTD/svg11.dtd">
<svg version="1.1" xmlns="http://www.w3.org/2000/svg" xmlns:xlink="http://www.w3.org/1999/xlink" x="0px" y="0px" viewBox="0 0 256 256" enable-background="new 0 0 256 256" xml:space="preserve">
<metadata> Svg Vector Icons : http://www.onlinewebfonts.com/icon </metadata>
<g><g><g><path fill="#000000" d="M37.1,26.8c-8.2,0.7-16,2.2-22.2,4.1c-6.4,1.9-6.4,2.2-0.6,4.1c17.6,5.7,39.9,5.8,57.8,0.2c2.7-0.8,4.9-1.8,5-2.1c0.2-0.6-6-2.8-11.4-4C58.1,27.4,43.8,26.2,37.1,26.8z"/><path fill="#000000" d="M205.7,26.8c-8.9,0.7-23.8,3.9-26.5,5.7c-1.1,0.7-0.1,1.2,5.5,2.9c17.9,5.4,38.9,5.3,56.3-0.2c4.8-1.5,5.7-2,4.6-2.7c-0.9-0.6-7.2-2.5-11.1-3.4C226.7,27.4,212.9,26.3,205.7,26.8z"/><path fill="#000000" d="M209.6,51.9v7.8l-26.2-0.1l-26.2-0.1l-0.4-1.6c-0.7-2.8-0.6-2.8-9.8-2.8h-8.5l9.5,11.4c5.3,6.3,9.8,11.5,10.1,11.6c0.4,0.1,1.8-2.3,3.8-6.5l3.2-6.7h18.4H202l0.1,3.5c0.1,6.6,3,13.1,6.8,15.4c2.3,1.3,5.4,1.2,7.6-0.4c3.1-2.2,5.7-7.9,6.3-14c0.3-2.5,0.1-3.3-0.7-5c-1-2.1-3.1-3.6-5.7-4.2l-1.3-0.3v-7.8v-7.8h-2.8h-2.8V51.9z"/><path fill="#000000" d="M40.8,52.4v7.4L39.5,60c-2.2,0.5-4.6,2.1-5.5,3.6c-1.8,3.1-0.6,11.7,2.5,16.5c4.6,7.2,12.4,5.5,15.7-3.5c1.1-3,2-9,1.6-10.6l-0.3-1.2h18.5h18.5l3.2,6.7c2,4.2,3.5,6.6,3.8,6.5c0.4-0.1,4.9-5.3,10.1-11.6l9.5-11.4h-8.5c-9.2,0-9.1,0-9.8,2.8l-0.4,1.6l-26.2,0.1l-26.2,0.1v-7.4V45h-2.8h-2.8L40.8,52.4L40.8,52.4z"/><path fill="#000000" d="M115.8,66.9C105,80,104,81.5,105.5,82.7c0.3,0.3,2.8,0.6,5.4,0.6l4.8,0.1l0.1,19.3c0.1,17.2,0.2,19.5,0.9,20.2s1.7,0.8,11.2,0.8c9.5,0,10.5-0.1,11.2-0.8s0.8-3,0.9-20.2l0.1-19.3l4.8-0.1c2.7,0,5.1-0.4,5.4-0.6c1.5-1.2,0.6-2.7-10.3-15.8C131,56,128.9,53.7,128,53.7C127,53.7,124.9,56,115.8,66.9z"/><path fill="#000000" d="M97.9,130.1c-0.7,0.4-1.5,1.2-1.7,1.8c-0.3,0.6-0.5,8.5-0.5,18.1v17l4.1,1c2.2,0.6,6.4,2.2,9.3,3.6c6.7,3.1,10.4,4.1,19.8,5c14.5,1.5,19.9,3.2,25.2,8.2c1.8,1.7,1.9,1.8,3.3,1.2c2.9-1,2.9-0.6,2.9-28c0-14.7-0.2-25.4-0.5-26.1c-0.9-2.4-2.1-2.6-15.2-2.6h-12l-0.1,7l-0.1,7.1H128h-4.4l-0.1-7.1l-0.1-7h-12.1C101.3,129.4,98.9,129.6,97.9,130.1z"/><path fill="#000000" d="M38.9,169.2l-1.2,0.6l-0.1,22.1c-0.1,19.1,0,22.3,0.6,22.8c0.5,0.4,2.6,0.6,7,0.5c6,0,6.4-0.1,7.2-1c0.7-0.9,0.8-2.7,0.8-22.3v-21.4l-1.2-0.9c-1.1-0.9-1.8-1-6.6-1C42.1,168.6,39.7,168.8,38.9,169.2z"/><path fill="#000000" d="M74.6,172.1c-4.6,0.6-11.1,2.1-14.5,3.2c-1.7,0.6-2.3,1-2.6,2.1c-0.6,1.8-0.7,26.7,0,29.1c0.6,1.9,1.5,2.4,6,2.9c3,0.4,5.1,1.2,19.2,7.9c15,7.2,22.9,10.7,26.2,11.5c3.3,0.8,5.5,0.6,19.7-1.5c5.7-0.9,12.7-1.9,15.5-2.3c3.5-0.5,5.9-1.1,7.8-2c3.6-1.7,17.4-11.1,20-13.6c3.5-3.4,4.3-6.1,2.2-7.5l-1.2-0.7l1.2-1.4c3.4-4-1.6-8.6-8-7.3c-3.1,0.6-7.1,2.7-10.1,5.3c-2.9,2.5-4.9,3.7-7.8,4.7c-5.6,1.8-20.3,2.7-25.6,1.4c-1.4-0.3-4.8-1.5-7.6-2.6l-5-2l2.5-0.3c2.5-0.3,11.8,0,24.6,1c7.4,0.5,8.7,0.3,10.7-1.6c1.6-1.5,3.3-5.1,3.3-7.1c0-2.3-2.9-5.2-6.6-6.5c-3.6-1.3-10.8-2.8-16.8-3.3c-12.4-1.2-12.4-1.2-18.6-4.2c-7-3.4-10.1-4.4-15.2-5.3C89.2,171.2,80.4,171.2,74.6,172.1z"/></g></g></g>
</svg>