<?xml version="1.0" encoding="utf-8"?>
<!-- Svg Vector Icons : http://www.onlinewebfonts.com/icon -->
<!DOCTYPE svg PUBLIC "-//W3C//DTD SVG 1.1//EN" "http://www.w3.org/Graphics/SVG/1.1/DTD/svg11.dtd">
<svg version="1.1" xmlns="http://www.w3.org/2000/svg" xmlns:xlink="http://www.w3.org/1999/xlink" x="0px" y="0px" viewBox="0 0 256 256" enable-background="new 0 0 256 256" xml:space="preserve">
<metadata> Svg Vector Icons : http://www.onlinewebfonts.com/icon </metadata>
<g><g><g><path fill="#000000" d="M33.3,79.9c-12,1.7-23.3,4.6-23.3,5.9c0,1,8.8,3.5,17.3,5.1c5.5,1,20.8,1.4,26.8,0.7c8.6-1,22.2-4.3,23-5.6c0.4-0.6-1.3-1.4-6.4-2.9c-9-2.6-13.9-3.2-25.4-3.4C39.5,79.8,34.1,79.8,33.3,79.9z"/><path fill="#000000" d="M201.8,79.9c-4,0.4-12.2,2.1-16.4,3.3c-5.1,1.5-6.8,2.2-6.5,2.9c0.3,0.6,6.5,2.5,11.4,3.7c13.4,3.1,30.9,3.1,44.2,0c6.8-1.6,11.5-3.2,11.5-3.9c0-1.2-11.7-4.3-20.7-5.5C220.6,79.7,206.2,79.4,201.8,79.9z"/><path fill="#000000" d="M122.2,82.6c-7.1,1.4-11.9,4.1-17.1,9.3c-4.7,4.7-7.6,10.1-8.8,16.5l-0.8,4.1H71H46.5l-0.1-7.3l-0.1-7.2l-2.6-0.1l-2.7-0.1v7.6v7.6L39,113c-2.4,0.4-4.9,2.6-5.6,5c-1.2,3.9,1,12.4,4.1,16c5.7,6.6,13,3.2,15.7-7.4c0.4-1.5,0.7-4.1,0.7-5.8l0-3l21,0.1l21,0.1l0.6,2.8c1.3,6.4,4.8,12.4,13.7,23.6c10.5,13.1,14.1,19.5,15.9,28c0.6,3.2,0.9,3.7,1.8,3.8c0.6,0.1,1.1-0.1,1.2-0.5c0.1-0.3,0.6-2.4,1.1-4.6c1.8-7.7,5.6-14.2,15.8-27.1c9.3-11.7,12.3-16.8,13.6-23.3l0.6-2.8l21.1-0.1l21.1-0.1l-0.2,1.2c-0.3,1.8,0.5,7.3,1.6,10.1c1.9,5.1,5.1,8,8.6,8c5.2,0,9.1-5.3,10.4-13.9c0.4-2.7,0.4-4,0-5.4c-0.7-2.4-3.2-4.6-5.6-5l-1.8-0.3l-0.1-7.9l-0.1-7.9h-2.5h-2.5l-0.1,7.7l-0.1,7.7H185h-24.6l-0.8-4.1c-0.5-2.6-1.5-5.5-2.9-8.4c-3.9-8-12-14.7-20.7-16.8C132.1,82.1,126,81.8,122.2,82.6z M131.6,92.1c12.7,2.1,21.4,15.2,18.3,27.4c-0.4,1.5-1.3,3.9-2,5.3c-1.5,3.1-5.9,7.6-9.1,9.3c-4.8,2.6-11.2,3.4-16.5,2c-8-2.1-14.6-9.1-16.3-17.2c-2.8-13.5,7.6-26.6,21.6-27.2C128.2,91.6,130,91.8,131.6,92.1z"/></g></g></g>
</svg>