<?xml version="1.0" encoding="utf-8"?>
<!-- Svg Vector Icons : http://www.onlinewebfonts.com/icon -->
<!DOCTYPE svg PUBLIC "-//W3C//DTD SVG 1.1//EN" "http://www.w3.org/Graphics/SVG/1.1/DTD/svg11.dtd">
<svg version="1.1" xmlns="http://www.w3.org/2000/svg" xmlns:xlink="http://www.w3.org/1999/xlink" x="0px" y="0px" viewBox="0 0 256 256" enable-background="new 0 0 256 256" xml:space="preserve">
<metadata> Svg Vector Icons : http://www.onlinewebfonts.com/icon </metadata>
<g><g><g><path fill="#000000" d="M31.8,76.5C22.3,77.7,10,80.9,10,82.3c0,1.2,10.3,4,19.2,5.4c10.8,1.7,26.5,0.9,37.1-1.7c9.7-2.4,12.3-3.6,9.7-4.6C63.9,76.8,46,74.8,31.8,76.5z"/><path fill="#000000" d="M204.9,76.1c-0.7,0.1-3.3,0.4-5.7,0.7c-6.4,0.7-18.8,3.9-20.2,5.1c-0.6,0.6,0.3,1.1,4,2.2c16.4,4.9,33,5.8,49.1,2.5c7.4-1.5,13.9-3.6,13.9-4.4c0-1.5-14-5-24-6C217.3,75.9,208.1,75.7,204.9,76.1z"/><path fill="#000000" d="M209.7,101.2v7.9l-26.2-0.1l-26.2-0.1l-0.4-1.6c-0.9-3.4,0.8-3.2-29-3.2s-28.1-0.2-29,3.2l-0.4,1.6L72.4,109l-26.2,0.1v-7.4v-7.4h-2.8h-2.8v7.3v7.3l-1.5,0.3c-4.3,0.9-6.7,4.3-6.2,9.2c1.1,11.5,8.1,18.4,14.4,14.1c3.5-2.4,6.3-9,6.4-15.1l0-3.4h18.4h18.4l3,6.3c1.7,3.5,3.4,6.6,3.8,6.9c0.5,0.4,3.4,0.6,9.8,0.6h9.1l2.4,1.6c5.9,4,12.6,4,18.5,0l2.4-1.6h9.1c8.2,0,9.2-0.1,10-0.8c0.5-0.5,2.1-3.6,3.6-6.9l2.8-6.1h18.5h18.5l0,3c0.1,10.3,6,18.3,12.1,16.5c2.6-0.8,4.4-2.5,6-5.7c1.4-3,2.8-8.2,2.8-10.9c0-3.7-2.6-6.8-6.3-7.6l-1.5-0.3v-7.8v-7.8h-2.8h-2.8V101.2z"/><path fill="#000000" d="M112.2,139c-1.2,1.4-0.9,2.6,1.1,4.5c2.5,2.3,6.7,4.2,10.7,4.9c6.5,1.2,13.9-1,18.7-5.3c2.2-2,2.2-2.1,1.5-3.4c-1.1-1.9-2.3-1.8-5.2,0.3c-3.6,2.7-6.8,3.8-11.2,3.8s-7.7-1.1-11.3-3.8C113.6,137.9,113.2,137.9,112.2,139z"/><path fill="#000000" d="M102.7,149.8c-1.6,0.6-1.8,2.5-0.6,4c3.1,3.4,10.9,7.7,16.6,9.2c4.8,1.3,14.4,1.2,18.9-0.2c4.5-1.4,9.8-4.2,13.2-6.9c3.6-2.9,4.1-3.7,3.3-5.2c-1-2-2.6-1.8-5.7,0.9c-2.9,2.6-9.6,6-13.3,6.9c-4.3,1-9.1,1.2-13.3,0.3c-4.6-0.9-11.1-3.9-14.5-6.7C104.5,149.5,103.9,149.3,102.7,149.8z"/><path fill="#000000" d="M161.7,162.5c-20.1,17.5-49.6,17.1-69.1-0.9c-1.6-1.5-2.2-1.8-3.1-1.5c-0.6,0.2-1.4,0.8-1.7,1.5c-0.5,1.1-0.3,1.3,1.8,3.5c2.4,2.5,9,7.1,13.1,9.2c9.9,4.9,22.6,7,33.2,5.4c11-1.7,22.1-6.9,29.8-14.1c3-2.8,3.3-3.5,2.4-4.9C166.8,158.8,165.5,159.2,161.7,162.5z"/></g></g></g>
</svg>